# xmcd CD database file
#
# Track frame offsets:
#	150
#	11724
#	26499
#	40776
#	64701
#	75216
#	91341
#	102291
#	117291
#	129395
#	141805
#	159655
#	174580
#	189526
#	201001
#
# Disc length: 2807 seconds
#
# Revision: 2
# Processed by: cddbd v1.5.1PL0 Copyright (c) Steve Scherf et al.
# Submitted via: CDex 1.51
#
DISCID=bb0af50f
DTITLE=Borderline - Chicano Music from the South Borderline
DYEAR=2000
DGENRE=Country
TTITLE0=Si asi lo crees
TTITLE1=El Alacran
TTITLE2=Say you love me
TTITLE3=Break my heart again
TTITLE4=Margarita
TTITLE5=Rosa Maria
TTITLE6=Madalena
TTITLE7=Qué cansualidad
TTITLE8=Atatonilco
TTITLE9=Empty arms
TTITLE10=Chicano
TTITLE11=Someone I used to know
TTITLE12=Tienes qué pagar
TTITLE13=Alberta
TTITLE14=El Satelite
EXTD=YEAR: 2000
EXTT0=
EXTT1=
EXTT2=
EXTT3=
EXTT4=
EXTT5=
EXTT6=
EXTT7=
EXTT8=
EXTT9=
EXTT10=
EXTT11=
EXTT12=
EXTT13=
EXTT14=
PLAYORDER=
